<svg width="14" height="14" viewBox="0 0 14 14" fill="none" xmlns="http://www.w3.org/2000/svg">
<path d="M7.4248 2.61133H6.5498V7.48155L9.7111 8.98403L10.0867 8.19375L7.4248 6.92861V2.61133Z" fill="#9F9F9F"/>
<path d="M7 0.4375C3.37564 0.4375 0.4375 3.37564 0.4375 7C0.4375 10.6244 3.37564 13.5625 7 13.5625C10.6244 13.5625 13.5625 10.6244 13.5625 7C13.5625 3.37564 10.6244 0.4375 7 0.4375ZM7 12.6875C3.85889 12.6875 1.3125 10.1411 1.3125 7C1.3125 3.85889 3.85889 1.3125 7 1.3125C10.1411 1.3125 12.6875 3.85889 12.6875 7C12.6875 10.1411 10.1411 12.6875 7 12.6875Z" fill="#9F9F9F"/>
</svg>
