<svg width="67" height="67" viewBox="0 0 67 67" fill="none" xmlns="http://www.w3.org/2000/svg">
<circle cx="33.4998" cy="33.2009" r="32.8193" stroke="#5D2DE3" stroke-width="0.76324"/>
<path d="M41.8997 17.7805C40.4331 17.6253 38.9591 17.5498 37.4844 17.5547C32.5949 17.5547 29.5568 20.6681 29.5568 25.6811V29.0842H25.4495C25.0483 29.0839 24.7228 29.409 24.7227 29.8103V35.409C24.7224 35.8102 25.0475 36.1356 25.4487 36.1358H29.5568V47.3572C29.5565 47.7585 29.8816 48.0838 30.2828 48.0841H36.0661C36.4674 48.0844 36.7927 47.7593 36.793 47.358V36.1358H40.8875C41.2527 36.1358 41.5614 35.8649 41.6087 35.5027L42.3314 29.9048C42.3833 29.5069 42.1028 29.1422 41.7048 29.0903C41.6734 29.0862 41.6418 29.0842 41.6102 29.0842H36.793V26.2362C36.793 24.8265 37.0769 24.2373 38.8402 24.2373L41.8046 24.2359C42.2058 24.236 42.5312 23.911 42.5315 23.5098V18.5017C42.5315 18.1368 42.2614 17.8284 41.8997 17.7805ZM41.0777 22.7821L38.8402 22.7835C35.7027 22.7835 35.3392 24.7541 35.3392 26.2362V29.8111C35.339 30.2123 35.6641 30.5378 36.0653 30.5379H40.7838L40.2486 34.6821H36.0661C35.6649 34.6819 35.3395 35.0069 35.3392 35.4082V46.6303H31.0105V35.409C31.0108 35.0077 30.6857 34.6823 30.2845 34.6821H26.1764V30.5379H30.2836C30.6849 30.5382 31.0103 30.2131 31.0105 29.8119V25.6811C31.0105 21.5029 33.431 19.0085 37.4844 19.0085C38.951 19.0085 40.2755 19.088 41.0777 19.1576V22.7821Z" fill="#5D2DE3"/>
</svg>
