<svg width="67" height="67" viewBox="0 0 67 67" fill="none" xmlns="http://www.w3.org/2000/svg">
<path d="M50.3363 18.1258C49.6338 17.5433 48.6683 17.3934 47.8223 17.7355L19.1726 29.3018C17.9123 29.8206 17.3112 31.2627 17.8299 32.5229C18.0982 33.1747 18.6323 33.6805 19.2975 33.9131L25.4781 36.0618L28.8276 47.1362C28.8343 47.1588 28.855 47.1725 28.8637 47.1942C28.8984 47.2825 28.949 47.3638 29.013 47.4339C29.0368 47.4621 29.0627 47.4886 29.0904 47.513C29.1739 47.5823 29.2708 47.6335 29.375 47.6634C29.3909 47.668 29.4016 47.6822 29.4178 47.6859L29.4272 47.6855L29.4318 47.6875C29.4852 47.6994 29.5397 47.7051 29.5942 47.7046C29.6656 47.7021 29.7363 47.6898 29.8043 47.668C29.8174 47.6644 29.8307 47.6654 29.8436 47.6611C29.9596 47.6202 30.0645 47.553 30.1499 47.4646C30.1598 47.4546 30.1749 47.4528 30.1845 47.4423L35.0034 42.1252L42.0335 47.5688C42.4607 47.9028 42.9873 48.0842 43.5295 48.0841C44.7022 48.0839 45.7145 47.2624 45.9561 46.115L51.1733 20.5025C51.3541 19.6165 51.0323 18.703 50.3363 18.1258ZM30.5765 38.162L29.4457 43.6575L27.0874 35.8578L38.784 29.7671L30.7936 37.7576C30.6831 37.8682 30.6077 38.0088 30.5765 38.162ZM44.39 45.7933C44.3287 46.0877 44.1187 46.329 43.8356 46.4304C43.559 46.5368 43.2467 46.4894 43.0143 46.3055L35.397 40.4075C35.0673 40.1522 34.5965 40.1937 34.3164 40.5028L30.9655 44.2L32.0944 38.7195L43.5889 27.2234C43.9013 26.9116 43.9018 26.4057 43.59 26.0933C43.3434 25.8461 42.9648 25.7878 42.6551 25.9492L26.0839 34.5786L19.8206 32.4015C19.4792 32.2892 19.247 31.9723 19.2429 31.6129C19.2264 31.251 19.4406 30.9183 19.7769 30.7837L48.4219 19.2189C48.7211 19.092 49.0664 19.1451 49.3135 19.3563C49.5595 19.5549 49.6725 19.8751 49.6055 20.184L44.39 45.7933Z" fill="#5D2DE3"/>
<circle cx="33.7986" cy="33.2009" r="32.8193" stroke="#5D2DE3" stroke-width="0.76324"/>
</svg>
